<svg width="348" height="80" viewBox="0 0 348 80" fill="none" xmlns="http://www.w3.org/2000/svg">
<path d="M108.802 27.751H88.8066C88.1068 27.751 87.7568 27.4987 87.7568 26.9941C87.7568 26.7663 87.9196 26.3512 88.2451 25.749C88.5706 25.1468 88.9531 24.6504 89.3926 24.2598C89.7669 23.918 90.3691 23.7471 91.1992 23.7471H111.194C111.894 23.7471 112.244 23.9993 112.244 24.5039C112.244 24.7318 112.081 25.1468 111.756 25.749C111.43 26.3512 111.048 26.8477 110.608 27.2383C110.234 27.5801 109.632 27.751 108.802 27.751ZM97.1074 57.1943L97.083 30.6807C97.083 30.0947 97.2783 29.7122 97.6689 29.5332C98.0758 29.3379 98.6943 29.2402 99.5244 29.2402C100.436 29.2402 101.071 29.3379 101.429 29.5332C101.803 29.7122 101.99 30.0947 101.99 30.6807V54.6064C101.99 55.3063 101.827 55.8516 101.502 56.2422C101.079 56.7467 100.493 57.2106 99.7441 57.6338C99.0117 58.0407 98.4176 58.2441 97.9619 58.2441C97.3923 58.2441 97.1074 57.8942 97.1074 57.1943ZM121.717 34.3916C123.833 32.9593 125.867 32.2432 127.82 32.2432C130.473 32.2432 132.41 33.0651 133.631 34.709C134.852 36.3366 135.462 38.9814 135.462 42.6436V55.0947C135.462 55.9736 135.055 56.7223 134.241 57.3408C133.444 57.943 132.671 58.2441 131.922 58.2441C131.352 58.2441 131.067 57.8942 131.067 57.1943C131.084 49.2354 131.076 44.8734 131.043 44.1084C131.027 43.3271 130.962 42.3913 130.848 41.3008C130.75 40.194 130.587 39.3802 130.359 38.8594C130.132 38.3385 129.814 37.8014 129.407 37.248C129.017 36.6784 128.504 36.2878 127.869 36.0762C127.234 35.8646 126.469 35.7588 125.574 35.7588C123.589 35.7588 120.993 37.0039 117.786 39.4941C117.265 39.901 116.858 40.1045 116.565 40.1045C116.24 40.1045 116.077 39.8604 116.077 39.3721V23.5518C116.077 22.6891 116.484 21.9648 117.298 21.3789C118.128 20.793 118.901 20.5 119.617 20.5C120.187 20.5 120.472 20.8499 120.472 21.5498L120.374 33.7568C120.374 34.4567 120.537 34.8066 120.862 34.8066C121.058 34.8066 121.342 34.6683 121.717 34.3916ZM116.077 57.1943V44.1084C116.077 43.1969 116.297 42.4971 116.736 42.0088C117.16 41.5205 117.68 41.0729 118.299 40.666C118.917 40.2591 119.389 40.0557 119.715 40.0557C120.219 40.0557 120.472 40.4056 120.472 41.1055V55.2168C120.472 56.0957 120.057 56.82 119.227 57.3896C118.396 57.9593 117.632 58.2441 116.932 58.2441C116.362 58.2441 116.077 57.8942 116.077 57.1943ZM145.618 33.293V55.0947C145.618 55.7132 145.472 56.2178 145.179 56.6084C144.756 57.0967 144.251 57.4954 143.665 57.8047C143.095 58.0977 142.566 58.2441 142.078 58.2441C141.508 58.2441 141.224 57.8942 141.224 57.1943V35.3926C141.224 34.7741 141.37 34.2777 141.663 33.9033C142.086 33.415 142.583 33.0163 143.152 32.707C143.738 32.3978 144.275 32.2432 144.764 32.2432C145.333 32.2432 145.618 32.5931 145.618 33.293ZM145.618 20.5732V24.1133C145.618 24.7318 145.472 25.2363 145.179 25.627C144.756 26.1152 144.251 26.514 143.665 26.8232C143.095 27.1162 142.566 27.2627 142.078 27.2627C141.508 27.2627 141.224 26.9128 141.224 26.2129V22.6729C141.224 22.0381 141.37 21.5417 141.663 21.1836C142.086 20.6953 142.583 20.2965 143.152 19.9873C143.738 19.6781 144.275 19.5234 144.764 19.5234C145.333 19.5234 145.618 19.8734 145.618 20.5732ZM151.673 57.1943V44.0596C151.673 43.1481 151.893 42.4482 152.332 41.96C152.771 41.4554 153.292 41.0078 153.895 40.6172C154.497 40.2103 154.969 40.0068 155.311 40.0068C155.815 40.0068 156.067 40.3568 156.067 41.0566V55.0947C156.067 55.9899 155.66 56.7386 154.847 57.3408C154.049 57.943 153.276 58.2441 152.527 58.2441C151.958 58.2441 151.673 57.8942 151.673 57.1943ZM157.41 34.3184C158.338 33.6348 159.306 33.1221 160.315 32.7803C161.325 32.4222 162.228 32.2432 163.025 32.2432C165.857 32.2432 167.933 33.0407 169.251 34.6357C170.569 36.2145 171.229 38.8675 171.229 42.5947V55.0947C171.229 55.9736 170.83 56.7223 170.032 57.3408C169.235 57.943 168.453 58.2441 167.688 58.2441C167.119 58.2441 166.834 57.8942 166.834 57.1943V47.5508C166.834 46.0208 166.818 44.8652 166.785 44.084C166.769 43.3027 166.704 42.3669 166.59 41.2764C166.492 40.1859 166.321 39.3802 166.077 38.8594C165.833 38.3223 165.499 37.777 165.076 37.2236C164.669 36.6702 164.132 36.2878 163.465 36.0762C162.798 35.8646 162 35.7588 161.072 35.7588C159.201 35.7588 156.637 37.0039 153.382 39.4941C152.861 39.901 152.454 40.1045 152.161 40.1045C151.836 40.1045 151.673 39.8278 151.673 39.2744V35.3926C151.673 34.5137 152.072 33.7731 152.869 33.1709C153.683 32.5524 154.464 32.2432 155.213 32.2432C155.783 32.2432 156.067 32.5931 156.067 33.293V33.9033C156.067 34.4893 156.198 34.7822 156.458 34.7822C156.686 34.7822 157.003 34.6276 157.41 34.3184ZM177.674 39.6406C177.999 39.3639 178.447 39.071 179.017 38.7617C179.586 38.4362 180.042 38.2734 180.384 38.2734C180.807 38.2734 181.019 38.5094 181.019 38.9814C181.019 39.1117 180.986 39.4535 180.921 40.0068C180.872 40.5602 180.848 41.0811 180.848 41.5693C180.848 42.6273 180.986 43.5469 181.263 44.3281C181.556 45.0931 181.889 45.6709 182.264 46.0615C182.654 46.4521 183.143 46.7614 183.729 46.9893C184.314 47.2008 184.811 47.3311 185.218 47.3799C185.641 47.4287 186.121 47.4531 186.658 47.4531C187.439 47.4531 188.099 47.3473 188.636 47.1357C189.173 46.9079 189.498 46.7939 189.612 46.7939C189.889 46.7939 190.027 46.9648 190.027 47.3066C190.027 47.9577 189.523 48.6738 188.514 49.4551C187.521 50.2201 186.137 50.6025 184.363 50.6025C183.582 50.6025 182.833 50.5293 182.117 50.3828C181.401 50.2363 180.693 49.984 179.993 49.626C179.293 49.2516 178.691 48.7878 178.187 48.2344C177.682 47.681 177.275 46.9567 176.966 46.0615C176.657 45.1663 176.502 44.1491 176.502 43.0098C176.502 41.4635 176.893 40.3405 177.674 39.6406ZM193.299 38.542C194.438 38.542 195.171 38.7373 195.496 39.1279C195.903 39.6488 196.106 40.4707 196.106 41.5938C196.106 43.4167 195.594 45.1175 194.568 46.6963C194.161 47.2985 193.567 47.917 192.786 48.5518C192.021 49.1865 191.46 49.5039 191.102 49.5039C190.809 49.5039 190.662 49.3574 190.662 49.0645C190.662 48.9505 190.752 48.7552 190.931 48.4785C191.11 48.1855 191.305 47.8682 191.517 47.5264C191.728 47.1683 191.924 46.6393 192.103 45.9395C192.282 45.2396 192.371 44.4746 192.371 43.6445C192.371 43.0911 192.282 42.375 192.103 41.4961C191.924 40.6172 191.663 39.9255 191.321 39.4209C191.224 39.2744 191.175 39.1605 191.175 39.0791C191.175 38.9814 191.199 38.9001 191.248 38.835C191.313 38.7699 191.508 38.7048 191.834 38.6396C192.176 38.5745 192.664 38.542 193.299 38.542ZM192.664 70.9395C193.51 70.3698 194.153 69.6374 194.593 68.7422C195.032 67.847 195.252 66.9274 195.252 65.9834C195.252 63.6885 194.528 62.0771 193.079 61.1494C191.631 60.2217 189.441 59.7415 186.512 59.709C185.34 59.6927 184.461 59.6764 183.875 59.6602C183.305 59.6439 182.565 59.5869 181.653 59.4893C180.742 59.4079 180.058 59.2695 179.603 59.0742C179.147 58.8952 178.659 58.6429 178.138 58.3174C177.633 58.0081 177.275 57.6012 177.063 57.0967C176.868 56.5758 176.771 55.9574 176.771 55.2412C176.771 54.0531 177.153 53.0521 177.918 52.2383C178.683 51.4082 179.342 50.9932 179.896 50.9932C180.188 50.9932 180.335 51.1396 180.335 51.4326C180.335 51.5465 180.237 51.8395 180.042 52.3115C179.863 52.7835 179.773 53.2148 179.773 53.6055C179.773 53.9473 179.855 54.2402 180.018 54.4844C180.197 54.7122 180.424 54.8994 180.701 55.0459C180.978 55.1761 181.377 55.2738 181.897 55.3389C182.435 55.404 182.972 55.4528 183.509 55.4854C184.062 55.5016 184.778 55.5098 185.657 55.5098C186.764 55.5098 187.741 55.5342 188.587 55.583C189.45 55.6156 190.361 55.7051 191.321 55.8516C192.282 55.998 193.112 56.2015 193.812 56.4619C194.528 56.7061 195.219 57.0479 195.887 57.4873C196.57 57.9268 197.124 58.4395 197.547 59.0254C197.97 59.6276 198.312 60.3682 198.572 61.2471C198.833 62.126 198.963 63.1107 198.963 64.2012C198.963 65.2754 198.751 66.2926 198.328 67.2529C197.921 68.2295 197.4 69.0352 196.766 69.6699C196.147 70.321 195.48 70.8418 194.764 71.2324C194.048 71.6393 193.38 71.859 192.762 71.8916C192.436 71.8916 192.273 71.7614 192.273 71.501C192.273 71.3382 192.404 71.151 192.664 70.9395ZM196.912 36.9307C196.229 37.1911 194.967 37.3213 193.128 37.3213C191.159 37.3213 189.702 37.1341 188.758 36.7598C187.065 36.0924 185.568 35.7588 184.266 35.7588C183.566 35.7588 182.662 35.9134 181.556 36.2227C180.449 36.5156 179.318 37.0446 178.162 37.8096C177.511 38.2653 177.129 38.4932 177.015 38.4932C176.754 38.4932 176.624 38.3467 176.624 38.0537C176.624 37.7933 176.836 37.362 177.259 36.7598C177.877 35.8483 178.577 35.0752 179.358 34.4404C180.14 33.7894 180.929 33.3174 181.727 33.0244C182.54 32.7314 183.273 32.528 183.924 32.4141C184.591 32.3001 185.25 32.2432 185.901 32.2432C187.757 32.2432 189.547 32.6094 191.272 33.3418C192.233 33.7487 193.087 33.9521 193.836 33.9521H198.475C198.995 33.9521 199.256 34.1312 199.256 34.4893C199.256 34.8636 198.995 35.3193 198.475 35.8564C197.954 36.3773 197.433 36.7354 196.912 36.9307ZM175.965 66.4961C175.965 64.8522 176.412 63.4199 177.308 62.1992C178.203 60.9785 178.968 60.3682 179.603 60.3682C179.912 60.3682 180.066 60.5309 180.066 60.8564C180.066 60.9053 179.985 61.304 179.822 62.0527C179.676 62.8014 179.603 63.5827 179.603 64.3965C179.603 65.9102 180.278 67.0902 181.629 67.9365C182.996 68.7992 184.811 69.2305 187.073 69.2305C187.903 69.2305 188.742 69.141 189.588 68.9619C190.434 68.7829 191.102 68.6038 191.59 68.4248C192.094 68.2458 192.355 68.1562 192.371 68.1562C192.664 68.1562 192.811 68.3027 192.811 68.5957C192.811 68.9212 192.623 69.3037 192.249 69.7432C191.891 70.1989 191.37 70.6546 190.687 71.1104C190.019 71.5661 189.1 71.9486 187.928 72.2578C186.772 72.5833 185.503 72.7461 184.119 72.7461C183.24 72.7461 182.345 72.624 181.434 72.3799C180.538 72.152 179.668 71.8021 178.821 71.3301C177.975 70.8581 177.283 70.1989 176.746 69.3525C176.225 68.5225 175.965 67.5703 175.965 66.4961ZM216.37 52.458C216.37 50.7165 215.89 49.4714 214.93 48.7227C213.986 47.974 212.618 47.5182 210.828 47.3555C209.249 47.209 207.89 46.9404 206.751 46.5498C205.612 46.1592 204.725 45.6872 204.09 45.1338C203.455 44.5641 202.991 43.9619 202.698 43.3271C202.422 42.6761 202.283 41.9762 202.283 41.2275C202.283 40.4626 202.674 39.7871 203.455 39.2012C204.236 38.599 204.896 38.2979 205.433 38.2979C205.807 38.2979 206.059 38.5501 206.189 39.0547C206.32 39.6081 206.45 40.0719 206.58 40.4463C206.727 40.8206 206.922 41.1543 207.166 41.4473C207.426 41.724 207.679 41.9518 207.923 42.1309C208.183 42.2936 208.574 42.4482 209.095 42.5947C209.632 42.7249 210.136 42.8307 210.608 42.9121C211.097 42.9935 211.788 43.0911 212.684 43.2051C214.1 43.3841 215.304 43.7096 216.297 44.1816C217.29 44.6374 218.038 45.207 218.543 45.8906C219.048 46.5742 219.406 47.2822 219.617 48.0146C219.829 48.7471 219.935 49.5771 219.935 50.5049C219.935 51.5465 219.756 52.5475 219.397 53.5078C219.056 54.4518 218.632 55.2249 218.128 55.8271C217.623 56.4131 217.111 56.8851 216.59 57.2432C216.069 57.585 215.613 57.7559 215.223 57.7559C214.962 57.7559 214.832 57.6338 214.832 57.3896C214.832 57.292 214.962 57.0479 215.223 56.6572C215.988 55.4202 216.37 54.0205 216.37 52.458ZM217.981 33.6592C218.486 34.0498 218.738 34.4323 218.738 34.8066C218.738 35.2135 218.396 35.7181 217.713 36.3203C217.046 36.9062 216.435 37.1992 215.882 37.1992C215.719 37.1992 215.573 37.1829 215.442 37.1504C215.312 37.1016 215.117 37.0283 214.856 36.9307C214.612 36.8167 214.433 36.7435 214.319 36.7109C212.789 36.0762 211.414 35.7588 210.193 35.7588C207.898 35.7588 205.88 36.2878 204.139 37.3457C204.025 37.4108 203.862 37.5085 203.65 37.6387C203.455 37.7689 203.292 37.8747 203.162 37.9561C203.048 38.0212 202.951 38.0537 202.869 38.0537C202.641 38.0537 202.527 37.9154 202.527 37.6387C202.527 37.2806 202.78 36.7842 203.284 36.1494C205.433 33.5452 208.452 32.2432 212.342 32.2432C213.367 32.2432 214.417 32.3652 215.491 32.6094C216.565 32.8535 217.396 33.2035 217.981 33.6592ZM206.922 53.9961C207.459 54.3216 207.825 54.5413 208.021 54.6553C208.232 54.7692 208.582 54.8994 209.07 55.0459C209.575 55.1761 210.112 55.2412 210.682 55.2412C211.398 55.2412 212.106 55.1354 212.806 54.9238C213.506 54.7122 213.872 54.6064 213.904 54.6064C214.279 54.6064 214.466 54.8018 214.466 55.1924C214.466 55.4528 214.336 55.7783 214.075 56.1689C213.815 56.5433 213.449 56.9339 212.977 57.3408C212.505 57.7314 211.854 58.0651 211.023 58.3418C210.21 58.6185 209.314 58.7568 208.338 58.7568C206.971 58.7568 205.66 58.4395 204.407 57.8047C203.154 57.1699 202.527 56.5189 202.527 55.8516C202.527 55.347 202.861 54.8343 203.528 54.3135C204.212 53.7764 204.863 53.5078 205.481 53.5078C205.888 53.5078 206.368 53.6706 206.922 53.9961ZM225.208 51.335V26.8965C225.208 26.2129 225.379 25.6676 225.721 25.2607C226.144 24.7562 226.722 24.3005 227.454 23.8936C228.187 23.4704 228.789 23.2588 229.261 23.2588C229.83 23.2588 230.115 23.6087 230.115 24.3086V51.335C230.115 51.9209 229.912 52.3115 229.505 52.5068C229.114 52.6859 228.504 52.7754 227.674 52.7754C226.762 52.7754 226.119 52.6859 225.745 52.5068C225.387 52.3115 225.208 51.9209 225.208 51.335ZM226.209 53.9961H242.762C243.462 53.9961 243.812 54.2484 243.812 54.7529C243.812 54.9808 243.641 55.3958 243.299 55.998C242.973 56.6003 242.591 57.1048 242.151 57.5117C241.793 57.8372 241.199 58 240.369 58H226.209C225.542 58 225.208 57.6501 225.208 56.9502V55.0459C225.208 54.346 225.542 53.9961 226.209 53.9961ZM252.21 33.293V55.0947C252.21 55.7132 252.063 56.2178 251.771 56.6084C251.347 57.0967 250.843 57.4954 250.257 57.8047C249.687 58.0977 249.158 58.2441 248.67 58.2441C248.1 58.2441 247.815 57.8942 247.815 57.1943V35.3926C247.815 34.7741 247.962 34.2777 248.255 33.9033C248.678 33.415 249.174 33.0163 249.744 32.707C250.33 32.3978 250.867 32.2432 251.355 32.2432C251.925 32.2432 252.21 32.5931 252.21 33.293ZM252.21 20.5732V24.1133C252.21 24.7318 252.063 25.2363 251.771 25.627C251.347 26.1152 250.843 26.514 250.257 26.8232C249.687 27.1162 249.158 27.2627 248.67 27.2627C248.1 27.2627 247.815 26.9128 247.815 26.2129V22.6729C247.815 22.0381 247.962 21.5417 248.255 21.1836C248.678 20.6953 249.174 20.2965 249.744 19.9873C250.33 19.6781 250.867 19.5234 251.355 19.5234C251.925 19.5234 252.21 19.8734 252.21 20.5732ZM258.265 57.1943V44.0596C258.265 43.1481 258.484 42.4482 258.924 41.96C259.363 41.4554 259.884 41.0078 260.486 40.6172C261.089 40.2103 261.561 40.0068 261.902 40.0068C262.407 40.0068 262.659 40.3568 262.659 41.0566V55.0947C262.659 55.9899 262.252 56.7386 261.438 57.3408C260.641 57.943 259.868 58.2441 259.119 58.2441C258.549 58.2441 258.265 57.8942 258.265 57.1943ZM264.002 34.3184C264.93 33.6348 265.898 33.1221 266.907 32.7803C267.916 32.4222 268.82 32.2432 269.617 32.2432C272.449 32.2432 274.524 33.0407 275.843 34.6357C277.161 36.2145 277.82 38.8675 277.82 42.5947V55.0947C277.82 55.9736 277.422 56.7223 276.624 57.3408C275.826 57.943 275.045 58.2441 274.28 58.2441C273.711 58.2441 273.426 57.8942 273.426 57.1943V47.5508C273.426 46.0208 273.41 44.8652 273.377 44.084C273.361 43.3027 273.296 42.3669 273.182 41.2764C273.084 40.1859 272.913 39.3802 272.669 38.8594C272.425 38.3223 272.091 37.777 271.668 37.2236C271.261 36.6702 270.724 36.2878 270.057 36.0762C269.389 35.8646 268.592 35.7588 267.664 35.7588C265.792 35.7588 263.229 37.0039 259.974 39.4941C259.453 39.901 259.046 40.1045 258.753 40.1045C258.427 40.1045 258.265 39.8278 258.265 39.2744V35.3926C258.265 34.5137 258.663 33.7731 259.461 33.1709C260.275 32.5524 261.056 32.2432 261.805 32.2432C262.374 32.2432 262.659 32.5931 262.659 33.293V33.9033C262.659 34.4893 262.789 34.7822 263.05 34.7822C263.278 34.7822 263.595 34.6276 264.002 34.3184ZM283.606 57.1943V23.5762C283.606 22.6973 284.005 21.9648 284.803 21.3789C285.617 20.793 286.398 20.5 287.146 20.5C287.716 20.5 288.001 20.8499 288.001 21.5498V55.168C288.001 56.0632 287.602 56.8037 286.805 57.3896C286.007 57.9593 285.226 58.2441 284.461 58.2441C283.891 58.2441 283.606 57.8942 283.606 57.1943ZM301.526 56.4619C300.826 57.6501 300.062 58.2441 299.231 58.2441C298.841 58.2441 298.442 57.943 298.035 57.3408L289.637 45.0605C289.36 44.6374 289.222 44.2956 289.222 44.0352C289.222 43.6283 289.441 43.1807 289.881 42.6924L297.083 34.6602C297.767 33.8952 298.385 33.4313 298.938 33.2686C299.492 33.1058 300.42 33.0163 301.722 33C302.226 33 302.479 33.2035 302.479 33.6104C302.479 33.9033 302.243 34.2858 301.771 34.7578L294.52 42.2529C294.129 42.6761 293.934 43.0342 293.934 43.3271C293.934 43.5713 294.072 43.8724 294.349 44.2305L301.478 53.9961C301.771 54.4355 301.917 54.8343 301.917 55.1924C301.917 55.5993 301.787 56.0225 301.526 56.4619ZM310.462 42.4482C310.462 42.904 310.6 43.1969 310.877 43.3271C311.17 43.4411 311.593 43.498 312.146 43.498C313.562 43.498 314.775 43.376 315.784 43.1318C316.793 42.8877 317.566 42.5459 318.104 42.1064C318.641 41.667 319.023 41.2031 319.251 40.7148C319.495 40.2266 319.617 39.6895 319.617 39.1035C319.617 38.0944 319.267 37.2887 318.567 36.6865C317.868 36.068 316.744 35.7588 315.198 35.7588C312.773 35.7588 310.494 36.5238 308.362 38.0537C307.728 38.5257 307.329 38.7617 307.166 38.7617C306.889 38.7617 306.751 38.6071 306.751 38.2979C306.751 37.891 306.987 37.3945 307.459 36.8086C308.338 35.6855 309.339 34.766 310.462 34.0498C311.585 33.3337 312.61 32.8535 313.538 32.6094C314.466 32.3652 315.385 32.2432 316.297 32.2432C317.469 32.2432 318.527 32.3652 319.471 32.6094C320.415 32.8535 321.253 33.236 321.985 33.7568C322.718 34.2614 323.287 34.9613 323.694 35.8564C324.101 36.7354 324.305 37.7689 324.305 38.957C324.305 41.4961 323.092 43.4574 320.667 44.8408C318.258 46.208 314.962 46.8916 310.779 46.8916C309.607 46.8916 308.281 46.8265 306.8 46.6963C306.067 46.6475 305.701 46.2894 305.701 45.6221C305.701 43.8154 305.962 42.4645 306.482 41.5693C307.003 40.6579 307.679 39.958 308.509 39.4697C309.323 38.9977 309.941 38.7617 310.364 38.7617C310.755 38.7617 310.95 39.0059 310.95 39.4941C310.95 39.6895 310.869 40.1696 310.706 40.9346C310.543 41.6833 310.462 42.1878 310.462 42.4482ZM305.896 49.2598C305.896 48.4134 306.287 47.9902 307.068 47.9902H309.168C309.591 47.9902 309.884 48.0716 310.047 48.2344C310.226 48.3971 310.364 48.7552 310.462 49.3086C311.097 53.2637 313.261 55.2412 316.956 55.2412C317.884 55.2412 318.755 55.1273 319.568 54.8994C320.382 54.6715 321.009 54.4193 321.448 54.1426C321.904 53.8659 322.319 53.6136 322.693 53.3857C323.084 53.1579 323.369 53.0439 323.548 53.0439C323.922 53.0439 324.109 53.2474 324.109 53.6543C324.109 53.9961 323.922 54.4355 323.548 54.9727C323.174 55.5098 322.636 56.0713 321.937 56.6572C321.253 57.2269 320.301 57.7152 319.08 58.1221C317.876 58.5452 316.565 58.7568 315.149 58.7568C312.22 58.7568 309.941 57.8779 308.313 56.1201C306.702 54.346 305.896 52.0592 305.896 49.2598ZM329.261 57.1943V44.8896C329.261 43.9782 329.48 43.2783 329.92 42.79C330.359 42.2855 330.88 41.8298 331.482 41.4229C332.085 40.9997 332.557 40.7881 332.898 40.7881C333.403 40.7881 333.655 41.138 333.655 41.8379V55.168C333.655 56.0632 333.257 56.8037 332.459 57.3896C331.661 57.9593 330.88 58.2441 330.115 58.2441C329.546 58.2441 329.261 57.8942 329.261 57.1943ZM339.759 32.2432C340.687 32.2432 341.655 32.4466 342.664 32.8535C343.689 33.2604 344.202 33.7894 344.202 34.4404C344.202 34.9613 343.86 35.5065 343.177 36.0762C342.493 36.6296 341.891 36.9062 341.37 36.9062C340.931 36.9062 340.312 36.7028 339.515 36.2959C338.766 35.9378 338.082 35.7588 337.464 35.7588C337.073 35.7588 336.699 35.8239 336.341 35.9541C335.983 36.068 335.568 36.304 335.096 36.6621C334.624 37.0039 334.233 37.305 333.924 37.5654C333.631 37.8096 333.118 38.2734 332.386 38.957C331.67 39.6243 331.108 40.137 330.701 40.4951C330.343 40.8044 330.042 40.959 329.798 40.959C329.44 40.959 329.261 40.6579 329.261 40.0557V35.3193C329.261 34.4404 329.66 33.708 330.457 33.1221C331.271 32.5361 332.052 32.2432 332.801 32.2432C333.37 32.2432 333.655 32.5931 333.655 33.293V34.6602C333.655 35.181 333.769 35.4414 333.997 35.4414C334.176 35.4414 334.461 35.2461 334.852 34.8555C336.593 33.1139 338.229 32.2432 339.759 32.2432Z" fill="#0678D9"/>
<circle cx="40" cy="40" r="40" fill="#0678D9"/>
<path d="M37.8018 27.751H17.8066C17.1068 27.751 16.7568 27.4987 16.7568 26.9941C16.7568 26.7663 16.9196 26.3512 17.2451 25.749C17.5706 25.1468 17.9531 24.6504 18.3926 24.2598C18.7669 23.918 19.3691 23.7471 20.1992 23.7471H40.1943C40.8942 23.7471 41.2441 23.9993 41.2441 24.5039C41.2441 24.7318 41.0814 25.1468 40.7559 25.749C40.4303 26.3512 40.0479 26.8477 39.6084 27.2383C39.234 27.5801 38.6318 27.751 37.8018 27.751ZM26.1074 57.1943L26.083 30.6807C26.083 30.0947 26.2783 29.7122 26.6689 29.5332C27.0758 29.3379 27.6943 29.2402 28.5244 29.2402C29.4359 29.2402 30.0706 29.3379 30.4287 29.5332C30.8031 29.7122 30.9902 30.0947 30.9902 30.6807V54.6064C30.9902 55.3063 30.8275 55.8516 30.502 56.2422C30.0788 56.7467 29.4928 57.2106 28.7441 57.6338C28.0117 58.0407 27.4176 58.2441 26.9619 58.2441C26.3923 58.2441 26.1074 57.8942 26.1074 57.1943ZM45.2725 51.335V26.8965C45.2725 26.2129 45.4434 25.6676 45.7852 25.2607C46.2083 24.7562 46.7861 24.3005 47.5186 23.8936C48.251 23.4704 48.8532 23.2588 49.3252 23.2588C49.8949 23.2588 50.1797 23.6087 50.1797 24.3086V51.335C50.1797 51.9209 49.9762 52.3115 49.5693 52.5068C49.1787 52.6859 48.5684 52.7754 47.7383 52.7754C46.8268 52.7754 46.1839 52.6859 45.8096 52.5068C45.4515 52.3115 45.2725 51.9209 45.2725 51.335ZM46.2734 53.9961H62.8262C63.526 53.9961 63.876 54.2484 63.876 54.7529C63.876 54.9808 63.7051 55.3958 63.3633 55.998C63.0378 56.6003 62.6553 57.1048 62.2158 57.5117C61.8577 57.8372 61.2637 58 60.4336 58H46.2734C45.6061 58 45.2725 57.6501 45.2725 56.9502V55.0459C45.2725 54.346 45.6061 53.9961 46.2734 53.9961Z" fill="white"/>
</svg>
